{
    "asset" : {
        "generator" : "Khronos glTF Blender I/O v0.9.36",
        "version" : "2.0"
    },
    "scene" : 0,
    "scenes" : [
        {
            "name" : "Scene",
            "nodes" : [
                0,
                1
            ]
        }
    ],
    "nodes" : [
        {
            "mesh" : 0,
            "name" : "door",
            "scale" : [
                0.7137427926063538,
                1.2451441287994385,
                0.06041683629155159
            ],
            "translation" : [
                -0.7130857110023499,
                1.3816853761672974,
                0
            ]
        },
        {
            "mesh" : 1,
            "name" : "door_collider",
            "scale" : [
                -0.7161785364151001,
                1.2478513717651367,
                0.06953126192092896
            ],
            "translation" : [
                -0.7130857110023499,
                1.3789823055267334,
                0
            ]
        }
    ],
    "materials" : [
        {
            "doubleSided" : true,
            "name" : "Metal",
            "pbrMetallicRoughness" : {
                "baseColorFactor" : [
                    0.014999999664723873,
                    0.009999999776482582,
                    0.009999999776482582,
                    1
                ],
                "metallicFactor" : 1,
                "roughnessFactor" : 0.3499999940395355
            }
        },
        {
            "alphaMode" : "BLEND",
            "doubleSided" : true,
            "name" : "glass",
            "pbrMetallicRoughness" : {
                "baseColorFactor" : [
                    0.5,
                    0.5,
                    0.5,
                    0.30000001192092896
                ],
                "metallicFactor" : 1,
                "roughnessFactor" : 0.05000000074505806
            }
        }
    ],
    "meshes" : [
        {
            "name" : "Cube.002",
            "primitives" : [
                {
                    "attributes" : {
                        "POSITION" : 0,
                        "NORMAL" : 1,
                        "TEXCOORD_0" : 2
                    },
                    "indices" : 3,
                    "material" : 0
                },
                {
                    "attributes" : {
                        "POSITION" : 4,
                        "NORMAL" : 5,
                        "TEXCOORD_0" : 6
                    },
                    "indices" : 7,
                    "material" : 1
                }
            ]
        },
        {
            "name" : "Cube",
            "primitives" : [
                {
                    "attributes" : {
                        "POSITION" : 8,
                        "NORMAL" : 9,
                        "TEXCOORD_0" : 10
                    },
                    "indices" : 11
                }
            ]
        }
    ],
    "accessors" : [
        {
            "bufferView" : 0,
            "componentType" : 5126,
            "count" : 286,
            "max" : [
                1,
                1,
                2.355161190032959
            ],
            "min" : [
                -1,
                -1,
                -2.355168581008911
            ],
            "type" : "VEC3"
        },
        {
            "bufferView" : 1,
            "componentType" : 5126,
            "count" : 286,
            "type" : "VEC3"
        },
        {
            "bufferView" : 2,
            "componentType" : 5126,
            "count" : 286,
            "type" : "VEC2"
        },
        {
            "bufferView" : 3,
            "componentType" : 5123,
            "count" : 432,
            "type" : "SCALAR"
        },
        {
            "bufferView" : 4,
            "componentType" : 5126,
            "count" : 8,
            "max" : [
                0.858252763748169,
                0.858252763748169,
                0.23333218693733215
            ],
            "min" : [
                0.3733534812927246,
                -0.858252763748169,
                -0.23333445191383362
            ],
            "type" : "VEC3"
        },
        {
            "bufferView" : 5,
            "componentType" : 5126,
            "count" : 8,
            "type" : "VEC3"
        },
        {
            "bufferView" : 6,
            "componentType" : 5126,
            "count" : 8,
            "type" : "VEC2"
        },
        {
            "bufferView" : 7,
            "componentType" : 5123,
            "count" : 12,
            "type" : "SCALAR"
        },
        {
            "bufferView" : 8,
            "componentType" : 5126,
            "count" : 24,
            "max" : [
                1,
                1,
                1
            ],
            "min" : [
                -1,
                -1,
                -1
            ],
            "type" : "VEC3"
        },
        {
            "bufferView" : 9,
            "componentType" : 5126,
            "count" : 24,
            "type" : "VEC3"
        },
        {
            "bufferView" : 10,
            "componentType" : 5126,
            "count" : 24,
            "type" : "VEC2"
        },
        {
            "bufferView" : 11,
            "componentType" : 5123,
            "count" : 36,
            "type" : "SCALAR"
        }
    ],
    "bufferViews" : [
        {
            "buffer" : 0,
            "byteLength" : 3432,
            "byteOffset" : 0
        },
        {
            "buffer" : 0,
            "byteLength" : 3432,
            "byteOffset" : 3432
        },
        {
            "buffer" : 0,
            "byteLength" : 2288,
            "byteOffset" : 6864
        },
        {
            "buffer" : 0,
            "byteLength" : 864,
            "byteOffset" : 9152
        },
        {
            "buffer" : 0,
            "byteLength" : 96,
            "byteOffset" : 10016
        },
        {
            "buffer" : 0,
            "byteLength" : 96,
            "byteOffset" : 10112
        },
        {
            "buffer" : 0,
            "byteLength" : 64,
            "byteOffset" : 10208
        },
        {
            "buffer" : 0,
            "byteLength" : 24,
            "byteOffset" : 10272
        },
        {
            "buffer" : 0,
            "byteLength" : 288,
            "byteOffset" : 10296
        },
        {
            "buffer" : 0,
            "byteLength" : 288,
            "byteOffset" : 10584
        },
        {
            "buffer" : 0,
            "byteLength" : 192,
            "byteOffset" : 10872
        },
        {
            "buffer" : 0,
            "byteLength" : 72,
            "byteOffset" : 11064
        }
    ],
    "buffers" : [
        {
            "byteLength" : 11136,
            "uri" : "data:application/octet-stream;base64,"
        }
    ]
}
