{
    "asset" : {
        "generator" : "Khronos glTF Blender I/O v0.9.36",
        "version" : "2.0"
    },
    "scene" : 0,
    "scenes" : [
        {
            "name" : "Scene",
            "nodes" : [
                0,
                1
            ]
        }
    ],
    "nodes" : [
        {
            "mesh" : 0,
            "name" : "sliding_door",
            "scale" : [
                1.7087715864181519,
                1.2399646043777466,
                -0.05971801280975342
            ],
            "translation" : [
                0,
                1.2534018754959106,
                0
            ]
        },
        {
            "mesh" : 1,
            "name" : "sliding_door_collider",
            "scale" : [
                1.6944546699523926,
                1.2191708087921143,
                0.06292958557605743
            ],
            "translation" : [
                0,
                1.2472892999649048,
                0
            ]
        }
    ],
    "materials" : [
        {
            "doubleSided" : true,
            "name" : "Metal",
            "pbrMetallicRoughness" : {
                "baseColorFactor" : [
                    0.014999999664723873,
                    0.009999999776482582,
                    0.009999999776482582,
                    1
                ],
                "metallicFactor" : 1,
                "roughnessFactor" : 0.3499999940395355
            }
        },
        {
            "alphaMode" : "BLEND",
            "doubleSided" : true,
            "name" : "glass_blurry",
            "pbrMetallicRoughness" : {
                "baseColorFactor" : [
                    0.5,
                    0.5,
                    0.5,
                    0.30000001192092896
                ],
                "metallicFactor" : 1,
                "roughnessFactor" : 0.949999988079071
            }
        }
    ],
    "meshes" : [
        {
            "name" : "Cube.004",
            "primitives" : [
                {
                    "attributes" : {
                        "POSITION" : 0,
                        "NORMAL" : 1,
                        "TEXCOORD_0" : 2
                    },
                    "indices" : 3,
                    "material" : 0
                },
                {
                    "attributes" : {
                        "POSITION" : 4,
                        "NORMAL" : 5,
                        "TEXCOORD_0" : 6
                    },
                    "indices" : 7,
                    "material" : 1
                }
            ]
        },
        {
            "name" : "Cube.005",
            "primitives" : [
                {
                    "attributes" : {
                        "POSITION" : 8,
                        "NORMAL" : 9,
                        "TEXCOORD_0" : 10
                    },
                    "indices" : 11
                }
            ]
        }
    ],
    "accessors" : [
        {
            "bufferView" : 0,
            "componentType" : 5126,
            "count" : 80,
            "max" : [
                1,
                1,
                1
            ],
            "min" : [
                -1,
                -1,
                -1
            ],
            "type" : "VEC3"
        },
        {
            "bufferView" : 1,
            "componentType" : 5126,
            "count" : 80,
            "type" : "VEC3"
        },
        {
            "bufferView" : 2,
            "componentType" : 5126,
            "count" : 80,
            "type" : "VEC2"
        },
        {
            "bufferView" : 3,
            "componentType" : 5123,
            "count" : 144,
            "type" : "SCALAR"
        },
        {
            "bufferView" : 4,
            "componentType" : 5126,
            "count" : 8,
            "max" : [
                0.9325289130210876,
                0.9325289130210876,
                0.6000000834465027
            ],
            "min" : [
                -0.9325289130210876,
                -0.9325289130210876,
                -0.6000000834465027
            ],
            "type" : "VEC3"
        },
        {
            "bufferView" : 5,
            "componentType" : 5126,
            "count" : 8,
            "type" : "VEC3"
        },
        {
            "bufferView" : 6,
            "componentType" : 5126,
            "count" : 8,
            "type" : "VEC2"
        },
        {
            "bufferView" : 7,
            "componentType" : 5123,
            "count" : 12,
            "type" : "SCALAR"
        },
        {
            "bufferView" : 8,
            "componentType" : 5126,
            "count" : 24,
            "max" : [
                1,
                1,
                1
            ],
            "min" : [
                -1,
                -1,
                -1
            ],
            "type" : "VEC3"
        },
        {
            "bufferView" : 9,
            "componentType" : 5126,
            "count" : 24,
            "type" : "VEC3"
        },
        {
            "bufferView" : 10,
            "componentType" : 5126,
            "count" : 24,
            "type" : "VEC2"
        },
        {
            "bufferView" : 11,
            "componentType" : 5123,
            "count" : 36,
            "type" : "SCALAR"
        }
    ],
    "bufferViews" : [
        {
            "buffer" : 0,
            "byteLength" : 960,
            "byteOffset" : 0
        },
        {
            "buffer" : 0,
            "byteLength" : 960,
            "byteOffset" : 960
        },
        {
            "buffer" : 0,
            "byteLength" : 640,
            "byteOffset" : 1920
        },
        {
            "buffer" : 0,
            "byteLength" : 288,
            "byteOffset" : 2560
        },
        {
            "buffer" : 0,
            "byteLength" : 96,
            "byteOffset" : 2848
        },
        {
            "buffer" : 0,
            "byteLength" : 96,
            "byteOffset" : 2944
        },
        {
            "buffer" : 0,
            "byteLength" : 64,
            "byteOffset" : 3040
        },
        {
            "buffer" : 0,
            "byteLength" : 24,
            "byteOffset" : 3104
        },
        {
            "buffer" : 0,
            "byteLength" : 288,
            "byteOffset" : 3128
        },
        {
            "buffer" : 0,
            "byteLength" : 288,
            "byteOffset" : 3416
        },
        {
            "buffer" : 0,
            "byteLength" : 192,
            "byteOffset" : 3704
        },
        {
            "buffer" : 0,
            "byteLength" : 72,
            "byteOffset" : 3896
        }
    ],
    "buffers" : [
        {
            "byteLength" : 3968,
            "uri" : "data:application/octet-stream;base64,"
        }
    ]
}
